<svg xmlns="http://www.w3.org/2000/svg" xmlns:xlink="http://www.w3.org/1999/xlink" version="1.1" width="600" height="1000" viewBox="0 0 600 1000" xml:space="preserve">
<desc>Created with Fabric.js 3.5.0</desc>
<defs>
</defs>
<rect x="0" y="0" width="100%" height="100%" fill="#ffffff"/>
<g transform="matrix(0.9091 0 0 0.9091 272.73 454.55)" id="196648">
<g style="" vector-effect="non-scaling-stroke">
		<g transform="matrix(1 0 0 1 342.31 37.3611)" id="svg_2">
<path style="stroke: none; stroke-width: 1; stroke-dasharray: none; stroke-linecap: butt; stroke-dashoffset: 0; stroke-linejoin: miter; stroke-miterlimit: 4; is-custom-font: none; font-file-url: none; fill: rgb(220,220,220); fill-rule: nonzero; opacity: 1;" transform=" translate(-642.31, -537.3611)" d="m 639.44 601.23 c -1.22 -10.39 -1.92 -20.79 -2.53 -31.18 c -0.35 -5.14 -0.52 -10.39 -0.7 -15.54 l -0.44 -15.65 l -0.17 -15.54 c 0 -5.25 0 -10.39 0.09 -15.65 c 0.17 -10.39 0.44 -20.79 1.22 -31.18 c 0.26 -3.64 2.87 -6.43 5.92 -6 c 2.61 0.32 4.7 2.79 4.88 6 c 0.78 10.39 1.13 20.79 1.22 31.18 c 0.09 5.14 0.09 10.39 0.09 15.65 l -0.17 15.54 l -0.44 15.65 c -0.26 5.14 -0.35 10.39 -0.7 15.54 c -0.61 10.39 -1.31 20.79 -2.53 31.18 c -0.26 1.93 -1.65 3.32 -3.22 3 c -1.31 -0.32 -2.35 -1.5 -2.53 -3 l 0 0 l 0.01 0 z" stroke-linecap="round"/>
</g>
		<g transform="matrix(1 0 0 1 262.81 10.5711)" id="svg_3">
<path style="stroke: none; stroke-width: 1; stroke-dasharray: none; stroke-linecap: butt; stroke-dashoffset: 0; stroke-linejoin: miter; stroke-miterlimit: 4; is-custom-font: none; font-file-url: none; fill: rgb(220,220,220); fill-rule: nonzero; opacity: 1;" transform=" translate(-562.81, -510.5711)" d="m 559.94 574.44 c -1.22 -10.39 -1.92 -20.79 -2.53 -31.18 c -0.35 -5.14 -0.52 -10.39 -0.7 -15.65 l -0.44 -15.54 l -0.17 -15.65 c 0 -5.14 0 -10.39 0.09 -15.54 c 0.17 -10.39 0.44 -20.79 1.22 -31.18 c 0.26 -3.64 2.87 -6.43 5.92 -6 c 2.61 0.32 4.7 2.79 4.88 6 c 0.78 10.39 1.13 20.79 1.22 31.18 c 0.09 5.14 0.09 10.39 0.09 15.54 l -0.17 15.65 l -0.44 15.54 c -0.26 5.14 -0.44 10.39 -0.7 15.65 c -0.61 10.39 -1.31 20.79 -2.53 31.18 c -0.26 1.93 -1.65 3.32 -3.22 3 c -1.39 -0.21 -2.35 -1.39 -2.53 -3 l 0 0 l 0.01 0 z" stroke-linecap="round"/>
</g>
		<g transform="matrix(1 0 0 1 183.21 -16.1)" id="svg_4">
<path style="stroke: none; stroke-width: 1; stroke-dasharray: none; stroke-linecap: butt; stroke-dashoffset: 0; stroke-linejoin: miter; stroke-miterlimit: 4; is-custom-font: none; font-file-url: none; fill: rgb(220,220,220); fill-rule: nonzero; opacity: 1;" transform=" translate(-483.21, -483.9)" d="m 480.34 547.76 c -1.22 -10.39 -1.92 -20.79 -2.53 -31.18 c -0.35 -5.14 -0.52 -10.39 -0.7 -15.54 l -0.44 -15.65 l -0.17 -15.54 c 0 -5.14 0 -10.39 0.09 -15.65 c 0.17 -10.39 0.44 -20.79 1.22 -31.18 c 0.26 -3.64 2.96 -6.32 5.92 -6 c 2.61 0.32 4.62 2.79 4.88 6 c 0.78 10.39 1.13 20.79 1.22 31.18 c 0.09 5.14 0.09 10.39 0.09 15.65 l -0.17 15.54 l -0.44 15.65 c -0.26 5.14 -0.44 10.39 -0.7 15.54 c -0.61 10.39 -1.31 20.79 -2.53 31.18 c -0.26 1.93 -1.65 3.32 -3.22 3 c -1.31 -0.21 -2.35 -1.39 -2.53 -3 l 0 0 l 0.01 0 z" stroke-linecap="round"/>
</g>
		<g transform="matrix(1 0 0 1 103.71 -42.79)" id="svg_5">
<path style="stroke: none; stroke-width: 1; stroke-dasharray: none; stroke-linecap: butt; stroke-dashoffset: 0; stroke-linejoin: miter; stroke-miterlimit: 4; is-custom-font: none; font-file-url: none; fill: rgb(220,220,220); fill-rule: nonzero; opacity: 1;" transform=" translate(-403.71, -457.21)" d="m 400.84 521.07 c -1.22 -10.39 -1.92 -20.79 -2.53 -31.18 c -0.35 -5.14 -0.44 -10.39 -0.7 -15.54 l -0.44 -15.65 l -0.17 -15.65 c 0 -5.14 0 -10.39 0.09 -15.54 c 0.17 -10.39 0.44 -20.79 1.22 -31.18 c 0.26 -3.64 2.96 -6.32 5.92 -6 c 2.61 0.32 4.62 2.79 4.88 6 c 0.78 10.39 1.13 20.79 1.22 31.18 c 0.09 5.14 0.09 10.39 0.09 15.54 l -0.17 15.65 l -0.44 15.65 c -0.26 5.14 -0.44 10.39 -0.7 15.54 c -0.61 10.39 -1.31 20.79 -2.53 31.18 c -0.26 1.93 -1.65 3.32 -3.22 3 c -1.39 -0.21 -2.35 -1.39 -2.53 -3 l 0 0 l 0.01 0 z" stroke-linecap="round"/>
</g>
		<g transform="matrix(1 0 0 1 205.51 -186.705)" id="svg_6">
<rect style="stroke: none; stroke-width: 1; stroke-dasharray: none; stroke-linecap: butt; stroke-dashoffset: 0; stroke-linejoin: miter; stroke-miterlimit: 4; is-custom-font: none; font-file-url: none; fill: rgb(220,220,220); fill-rule: nonzero; opacity: 1;" x="-38.49" y="-60.865" rx="0" ry="0" width="76.98" height="121.73"/>
</g>
		<g transform="matrix(1 0 0 1 205.385 -256.035)" id="svg_7">
<path style="stroke: none; stroke-width: 1; stroke-dasharray: none; stroke-linecap: butt; stroke-dashoffset: 0; stroke-linejoin: miter; stroke-miterlimit: 4; is-custom-font: none; font-file-url: none; fill: rgb(0,129,204); fill-rule: nonzero; opacity: 1;" transform=" translate(-505.385, -243.965)" d="m 466.85 252.43 l 2.18 -8.79 c 1.31 -4.71 4.79 -7.93 8.88 -8.14 l 54.95 0 c 4.01 0.21 7.58 3.43 8.88 8.14 l 2.18 8.79 l -77.07 0 z" stroke-linecap="round"/>
</g>
		<g transform="matrix(1 0 0 1 205.5096 -172.936)" id="svg_8">
<polygon style="stroke: none; stroke-width: 1; stroke-dasharray: none; stroke-linecap: butt; stroke-dashoffset: 0; stroke-linejoin: miter; stroke-miterlimit: 4; is-custom-font: none; font-file-url: none; fill: rgb(218,223,225); fill-rule: nonzero; opacity: 1;" points="38.4903,53.3115 -38.4903,53.3115 -38.4903,-53.3115 38.4903,-0.8039 "/>
</g>
		<g transform="matrix(1 0 0 1 286.28 -100.715)" id="svg_9">
<path style="stroke: none; stroke-width: 1; stroke-dasharray: none; stroke-linecap: butt; stroke-dashoffset: 0; stroke-linejoin: miter; stroke-miterlimit: 4; is-custom-font: none; font-file-url: none; fill: rgb(220,220,220); fill-rule: nonzero; opacity: 1;" transform=" translate(-586.28, -399.285)" d="m 326.56 185.03 l 478.95 318.58 c 24.91 16.61 40.49 48.65 40.49 83.58 l 0 26.36 l -519.44 -160.1 l 0 -268.43 l 0 0.01 z" stroke-linecap="round"/>
</g>
		<g transform="matrix(1 0 0 1 243.6079 -13.1088)" id="svg_10">
<polyline style="stroke: rgb(178,178,178); stroke-width: 2; stroke-dasharray: none; stroke-linecap: butt; stroke-dashoffset: 0; stroke-linejoin: miter; stroke-miterlimit: 10; is-custom-font: none; font-file-url: none; fill: none; fill-rule: nonzero; opacity: 1;" points="196.5876,94.1924 180.6517,54.1149 -196.5876,-94.1924 "/>
</g>
		<g transform="matrix(1 0 0 1 303.74 16.255)" id="svg_11">
<line style="stroke: rgb(178,178,178); stroke-width: 2; stroke-dasharray: none; stroke-linecap: butt; stroke-dashoffset: 0; stroke-linejoin: miter; stroke-miterlimit: 10; is-custom-font: none; font-file-url: none; fill: none; fill-rule: nonzero; opacity: 1;" x1="0" y1="-22.715000000000003" x2="0" y2="22.715000000000003"/>
</g>
		<g transform="matrix(1 0 0 1 156.66 -36.09)" id="svg_12">
<line style="stroke: rgb(178,178,178); stroke-width: 2; stroke-dasharray: none; stroke-linecap: butt; stroke-dashoffset: 0; stroke-linejoin: miter; stroke-miterlimit: 10; is-custom-font: none; font-file-url: none; fill: none; fill-rule: nonzero; opacity: 1;" x1="0" y1="-29.630000000000024" x2="0" y2="29.630000000000024"/>
</g>
		<g transform="matrix(1 0 0 1 294.24 -123.92)" id="svg_13">
<path style="stroke: none; stroke-width: 1; stroke-dasharray: none; stroke-linecap: butt; stroke-dashoffset: 0; stroke-linejoin: miter; stroke-miterlimit: 4; is-custom-font: none; font-file-url: none; fill: rgb(0,129,204); fill-rule: nonzero; opacity: 1;" transform=" translate(-594.24, -376.08)" d="m 839.29 548.61 l -490.1 -324.16 l 5.14 -20.9 l 0 0 l 451.17 300.15 c 14.98 9.97 26.82 25.72 33.79 44.9 l 0 0.01 z" stroke-linecap="round"/>
</g>
		<g transform="matrix(1 0 0 1 259.1085 -39.6306)" id="svg_14">
<polyline style="stroke: rgb(178,178,178); stroke-width: 2; stroke-dasharray: none; stroke-linecap: butt; stroke-dashoffset: 0; stroke-linejoin: miter; stroke-miterlimit: 10; is-custom-font: none; font-file-url: none; fill: none; fill-rule: nonzero; opacity: 1;" points="146.3412,73.5645 146.3412,47.7392 -146.3412,-73.5645 -146.3412,-40.2381 "/>
</g>
		<g transform="matrix(1 0 0 1 308.27 -17.88)" id="svg_15">
<line style="stroke: rgb(178,178,178); stroke-width: 2; stroke-dasharray: none; stroke-linecap: butt; stroke-dashoffset: 0; stroke-linejoin: miter; stroke-miterlimit: 10; is-custom-font: none; font-file-url: none; fill: none; fill-rule: nonzero; opacity: 1;" x1="0" y1="-13.340000000000003" x2="0" y2="13.340000000000003"/>
</g>
		<g transform="matrix(1 0 0 1 210.56 -57.31)" id="svg_16">
<line style="stroke: rgb(178,178,178); stroke-width: 2; stroke-dasharray: none; stroke-linecap: butt; stroke-dashoffset: 0; stroke-linejoin: miter; stroke-miterlimit: 10; is-custom-font: none; font-file-url: none; fill: none; fill-rule: nonzero; opacity: 1;" x1="0" y1="-15.269999999999982" x2="0" y2="15.269999999999982"/>
</g>
		<g transform="matrix(1 0 0 1 -3.2268 -176.183)" id="svg_17">
<polygon style="stroke: none; stroke-width: 1; stroke-dasharray: none; stroke-linecap: butt; stroke-dashoffset: 0; stroke-linejoin: miter; stroke-miterlimit: 4; is-custom-font: none; font-file-url: none; fill: rgb(0,255,255); fill-rule: nonzero; opacity: 0.07;" points="-57.1258,-149.1114 57.1258,-73.0288 57.1258,149.1114 -57.1258,111.4987 "/>
</g>
		<g transform="matrix(1 0 0 1 -98.915 293.5)" id="svg_18">
<path style="stroke: none; stroke-width: 1; stroke-dasharray: none; stroke-linecap: butt; stroke-dashoffset: 0; stroke-linejoin: miter; stroke-miterlimit: 4; is-custom-font: none; font-file-url: none; fill: rgb(220,220,220); fill-rule: nonzero; opacity: 1;" transform=" translate(-201.085, -793.5)" d="m 297.14 676.92 l -183.31 151.84 c -5.49 4.61 -8.8 12.22 -8.8 20.36 l 0 60.97 l 192.1 -65.69 l 0 -167.49 l 0.01 0.01 z" stroke-linecap="round"/>
</g>
		<g transform="matrix(1 0 0 1 -88.2839 354.7531)" id="svg_19">
<polyline style="stroke: rgb(178,178,178); stroke-width: 2; stroke-dasharray: none; stroke-linecap: butt; stroke-dashoffset: 0; stroke-linejoin: miter; stroke-miterlimit: 10; is-custom-font: none; font-file-url: none; fill: none; fill-rule: nonzero; opacity: 1;" points="-85.4274,48.0607 -85.4274,25.4505 85.4274,-48.0607 "/>
</g>
		<g transform="matrix(1 0 0 1 -110.75 276.525)" id="svg_20">
<path style="stroke: none; stroke-width: 1; stroke-dasharray: none; stroke-linecap: butt; stroke-dashoffset: 0; stroke-linejoin: miter; stroke-miterlimit: 4; is-custom-font: none; font-file-url: none; fill: rgb(0,129,204); fill-rule: nonzero; opacity: 1;" transform=" translate(-189.25, -776.525)" d="m 273.46 696.64 l -21.16 17.36 l -138.46 114.66 c -5.49 4.61 -8.8 12.22 -8.8 20.36 l 0 7.39 l 168.42 -133.84 l 0 -25.93 z" stroke-linecap="round"/>
</g>
		<g transform="matrix(1 0 0 1 91.895 293.5)" id="svg_21">
<path style="stroke: none; stroke-width: 1; stroke-dasharray: none; stroke-linecap: butt; stroke-dashoffset: 0; stroke-linejoin: miter; stroke-miterlimit: 4; is-custom-font: none; font-file-url: none; fill: rgb(220,220,220); fill-rule: nonzero; opacity: 1;" transform=" translate(-391.895, -793.5)" d="m 295.84 676.92 l 183.31 151.84 c 5.49 4.61 8.8 12.22 8.8 20.36 l 0 60.97 l -192.1 -65.69 l 0 -167.49 l -0.01 0.01 z" stroke-linecap="round"/>
</g>
		<g transform="matrix(1 0 0 1 81.2212 354.7531)" id="svg_22">
<polyline style="stroke: rgb(178,178,178); stroke-width: 2; stroke-dasharray: none; stroke-linecap: butt; stroke-dashoffset: 0; stroke-linejoin: miter; stroke-miterlimit: 10; is-custom-font: none; font-file-url: none; fill: none; fill-rule: nonzero; opacity: 1;" points="85.384,48.0607 85.384,25.4505 -85.384,-48.0607 "/>
</g>
		<g transform="matrix(1 0 0 1 103.65 276.525)" id="svg_23">
<path style="stroke: none; stroke-width: 1; stroke-dasharray: none; stroke-linecap: butt; stroke-dashoffset: 0; stroke-linejoin: miter; stroke-miterlimit: 4; is-custom-font: none; font-file-url: none; fill: rgb(0,129,204); fill-rule: nonzero; opacity: 1;" transform=" translate(-403.65, -776.525)" d="m 319.44 696.64 l 21.16 17.36 l 138.46 114.66 c 5.49 4.61 8.8 12.22 8.8 20.36 l 0 7.39 l -168.42 -133.84 l 0 -25.93 z" stroke-linecap="round"/>
</g>
		<g transform="matrix(1 0 0 1 -343.3 37.3611)" id="svg_24">
<path style="stroke: none; stroke-width: 1; stroke-dasharray: none; stroke-linecap: butt; stroke-dashoffset: 0; stroke-linejoin: miter; stroke-miterlimit: 4; is-custom-font: none; font-file-url: none; fill: rgb(220,220,220); fill-rule: nonzero; opacity: 1;" transform=" translate(43.3, -537.3611)" d="m -46.17 601.23 c -1.22 -10.39 -1.92 -20.79 -2.53 -31.18 c -0.35 -5.14 -0.52 -10.39 -0.7 -15.54 l -0.44 -15.65 l -0.17 -15.54 c 0 -5.25 0 -10.39 0.09 -15.65 c 0.17 -10.39 0.44 -20.79 1.22 -31.18 c 0.26 -3.64 2.87 -6.43 5.92 -6 c 2.61 0.32 4.7 2.79 4.88 6 c 0.78 10.39 1.13 20.79 1.22 31.18 c 0.09 5.14 0.09 10.39 0.09 15.65 l -0.17 15.54 l -0.44 15.65 c -0.26 5.14 -0.44 10.39 -0.7 15.54 c -0.52 10.39 -1.31 20.79 -2.53 31.18 c -0.26 1.93 -1.65 3.32 -3.22 3 c -1.31 -0.32 -2.26 -1.5 -2.53 -3 l 0 0 l 0.01 0 z" stroke-linecap="round"/>
</g>
		<g transform="matrix(1 0 0 1 -263.7 10.58)" id="svg_25">
<path style="stroke: none; stroke-width: 1; stroke-dasharray: none; stroke-linecap: butt; stroke-dashoffset: 0; stroke-linejoin: miter; stroke-miterlimit: 4; is-custom-font: none; font-file-url: none; fill: rgb(220,220,220); fill-rule: nonzero; opacity: 1;" transform=" translate(-36.3, -510.58)" d="m 33.43 574.44 c -1.22 -10.39 -1.92 -20.79 -2.53 -31.18 c -0.35 -5.14 -0.52 -10.39 -0.7 -15.65 l -0.44 -15.54 l -0.17 -15.65 c 0 -5.14 0 -10.39 0.09 -15.54 c 0.17 -10.39 0.44 -20.79 1.22 -31.18 c 0.26 -3.64 2.96 -6.32 5.92 -6 c 2.61 0.32 4.62 2.79 4.88 6 c 0.78 10.39 1.13 20.79 1.22 31.18 c 0.09 5.14 0.09 10.39 0.09 15.54 l -0.17 15.65 l -0.44 15.54 c -0.26 5.14 -0.44 10.39 -0.7 15.65 c -0.52 10.39 -1.31 20.79 -2.53 31.18 c -0.26 1.93 -1.65 3.32 -3.22 3 c -1.39 -0.21 -2.35 -1.39 -2.53 -3 l 0 0 l 0.01 0 z" stroke-linecap="round"/>
</g>
		<g transform="matrix(1 0 0 1 -184.2 -16.21)" id="svg_26">
<path style="stroke: none; stroke-width: 1; stroke-dasharray: none; stroke-linecap: butt; stroke-dashoffset: 0; stroke-linejoin: miter; stroke-miterlimit: 4; is-custom-font: none; font-file-url: none; fill: rgb(220,220,220); fill-rule: nonzero; opacity: 1;" transform=" translate(-115.8, -483.79)" d="m 112.93 547.76 c -1.22 -10.39 -1.92 -20.79 -2.53 -31.18 c -0.35 -5.14 -0.52 -10.39 -0.7 -15.54 l -0.44 -15.65 l -0.17 -15.65 c 0 -5.14 0 -10.39 0.09 -15.65 c 0.17 -10.39 0.44 -20.79 1.22 -31.18 c 0.26 -3.64 2.96 -6.32 5.92 -6 c 2.61 0.32 4.62 2.79 4.88 6 c 0.78 10.39 1.13 20.79 1.22 31.18 c 0.09 5.14 0.09 10.39 0.09 15.65 l -0.17 15.54 l -0.52 15.65 c -0.26 5.14 -0.44 10.39 -0.7 15.54 c -0.61 10.39 -1.31 20.79 -2.53 31.18 c -0.26 1.93 -1.65 3.32 -3.22 3 c -1.22 -0.11 -2.18 -1.29 -2.44 -2.89 l 0 0 z" stroke-linecap="round"/>
</g>
		<g transform="matrix(1 0 0 1 -94.46 -37.58)" id="svg_27">
<path style="stroke: none; stroke-width: 1; stroke-dasharray: none; stroke-linecap: butt; stroke-dashoffset: 0; stroke-linejoin: miter; stroke-miterlimit: 4; is-custom-font: none; font-file-url: none; fill: rgb(220,220,220); fill-rule: nonzero; opacity: 1;" transform=" translate(-205.54, -462.42)" d="m 202.67 526.28 c -1.22 -10.39 -1.92 -20.79 -2.53 -31.18 c -0.35 -5.14 -0.52 -10.39 -0.7 -15.54 l -0.44 -15.65 l -0.17 -15.65 c 0 -5.14 0 -10.39 0.09 -15.54 c 0.17 -10.39 0.44 -20.79 1.22 -31.18 c 0.26 -3.64 2.96 -6.32 5.92 -6 c 2.61 0.32 4.62 2.79 4.88 6 c 0.78 10.39 1.13 20.79 1.22 31.18 c 0.09 5.14 0.09 10.39 0.09 15.54 l -0.17 15.65 l -0.44 15.65 c -0.26 5.14 -0.44 10.39 -0.7 15.54 c -0.61 10.39 -1.31 20.79 -2.53 31.18 c -0.26 1.93 -1.65 3.32 -3.22 3 c -1.39 -0.21 -2.35 -1.39 -2.53 -3 l 0 0 l 0.01 0 z" stroke-linecap="round"/>
</g>
		<g transform="matrix(1 0 0 1 -206.49 -186.705)" id="svg_28">
<rect style="stroke: none; stroke-width: 1; stroke-dasharray: none; stroke-linecap: butt; stroke-dashoffset: 0; stroke-linejoin: miter; stroke-miterlimit: 4; is-custom-font: none; font-file-url: none; fill: rgb(220,220,220); fill-rule: nonzero; opacity: 1;" x="-38.49" y="-60.865" rx="0" ry="0" width="76.98" height="121.73"/>
</g>
		<g transform="matrix(1 0 0 1 -206.355 -256.085)" id="svg_29">
<path style="stroke: none; stroke-width: 1; stroke-dasharray: none; stroke-linecap: butt; stroke-dashoffset: 0; stroke-linejoin: miter; stroke-miterlimit: 4; is-custom-font: none; font-file-url: none; fill: rgb(0,129,204); fill-rule: nonzero; opacity: 1;" transform=" translate(-93.645, -243.915)" d="m 132.18 252.43 l -2.18 -8.89 c -1.31 -4.71 -4.79 -7.93 -8.88 -8.14 l -54.95 0 c -4.01 0.21 -7.58 3.43 -8.88 8.14 l -2.18 8.89 l 77.07 0 z" stroke-linecap="round"/>
</g>
		<g transform="matrix(1 0 0 1 -206.4873 -172.936)" id="svg_30">
<polygon style="stroke: none; stroke-width: 1; stroke-dasharray: none; stroke-linecap: butt; stroke-dashoffset: 0; stroke-linejoin: miter; stroke-miterlimit: 4; is-custom-font: none; font-file-url: none; fill: rgb(218,223,225); fill-rule: nonzero; opacity: 1;" points="-38.4902,53.3115 38.4902,53.3115 38.4902,-53.3115 -38.4902,-0.8039 "/>
</g>
		<g transform="matrix(1 0 0 1 -287.25 -100.715)" id="svg_31">
<path style="stroke: none; stroke-width: 1; stroke-dasharray: none; stroke-linecap: butt; stroke-dashoffset: 0; stroke-linejoin: miter; stroke-miterlimit: 4; is-custom-font: none; font-file-url: none; fill: rgb(220,220,220); fill-rule: nonzero; opacity: 1;" transform=" translate(-12.75, -399.285)" d="m 272.47 185.03 l -478.95 318.58 c -24.91 16.61 -40.49 48.65 -40.49 83.58 l 0 26.36 l 519.44 -160.2 l 0 -268.33 l 0 0.01 z" stroke-linecap="round"/>
</g>
		<g transform="matrix(1 0 0 1 -244.5856 -13.1088)" id="svg_32">
<polyline style="stroke: rgb(178,178,178); stroke-width: 2; stroke-dasharray: none; stroke-linecap: butt; stroke-dashoffset: 0; stroke-linejoin: miter; stroke-miterlimit: 10; is-custom-font: none; font-file-url: none; fill: none; fill-rule: nonzero; opacity: 1;" points="-196.5875,94.1924 -180.6516,54.1149 196.5875,-94.1924 "/>
</g>
		<g transform="matrix(1 0 0 1 -304.72 16.255)" id="svg_33">
<line style="stroke: rgb(178,178,178); stroke-width: 2; stroke-dasharray: none; stroke-linecap: butt; stroke-dashoffset: 0; stroke-linejoin: miter; stroke-miterlimit: 10; is-custom-font: none; font-file-url: none; fill: none; fill-rule: nonzero; opacity: 1;" x1="0" y1="-22.715000000000003" x2="0" y2="22.715000000000003"/>
</g>
		<g transform="matrix(1 0 0 1 -157.63 -36.09)" id="svg_34">
<line style="stroke: rgb(178,178,178); stroke-width: 2; stroke-dasharray: none; stroke-linecap: butt; stroke-dashoffset: 0; stroke-linejoin: miter; stroke-miterlimit: 10; is-custom-font: none; font-file-url: none; fill: none; fill-rule: nonzero; opacity: 1;" x1="0" y1="-29.630000000000024" x2="0" y2="29.630000000000024"/>
</g>
		<g transform="matrix(1 0 0 1 -295.22 -123.92)" id="svg_35">
<path style="stroke: none; stroke-width: 1; stroke-dasharray: none; stroke-linecap: butt; stroke-dashoffset: 0; stroke-linejoin: miter; stroke-miterlimit: 4; is-custom-font: none; font-file-url: none; fill: rgb(0,129,204); fill-rule: nonzero; opacity: 1;" transform=" translate(-4.78, -376.08)" d="m -240.27 548.61 l 490.1 -324.16 l -5.14 -20.9 l 0 0 l -451.17 300.15 c -14.98 9.97 -26.82 25.72 -33.79 44.9 l 0 0.01 z" stroke-linecap="round"/>
</g>
		<g transform="matrix(1 0 0 1 32.3246 277.3311)" id="svg_36">
<polygon style="stroke: none; stroke-width: 1; stroke-dasharray: none; stroke-linecap: butt; stroke-dashoffset: 0; stroke-linejoin: miter; stroke-miterlimit: 4; is-custom-font: none; font-file-url: none; fill: rgb(0,255,255); fill-rule: nonzero; opacity: 0.07;" points="28.8242,-46.9358 28.8242,88.9417 -28.8242,71.7963 -28.8242,-88.9417 -24.1217,-87.2273 "/>
</g>
		<g transform="matrix(1 0 0 1 -0.815 -75.565)" id="body">
<path style="stroke: none; stroke-width: 1; stroke-dasharray: none; stroke-linecap: butt; stroke-dashoffset: 0; stroke-linejoin: miter; stroke-miterlimit: 4; is-custom-font: none; font-file-url: none; fill: rgb(220,220,220); fill-rule: nonzero; opacity: 1;" transform=" translate(-299.185, -424.435)" d="m 267.99 17.03 c -17.47 14.55 -42.9 51.22 -42.9 85.19 l 0 620.21 c 11.54 63.44 60.26 120.54 74.15 123.56 c 13.89 -3.02 62.5 -60.12 74.04 -123.56 l 0 -620.21 c 0 -33.97 -25.43 -70.72 -43.01 -85.26 c -8.06 -6.73 -19.6 -14.08 -31.03 -14.08 s -23.07 7.35 -31.25 14.16 l 0 -0.01 z" stroke-linecap="round"/>
</g>
		<g transform="matrix(1 0 0 1 -2.9 306.69)" id="svg_37">
<path style="stroke: none; stroke-width: 1; stroke-dasharray: none; stroke-linecap: butt; stroke-dashoffset: 0; stroke-linejoin: miter; stroke-miterlimit: 4; is-custom-font: none; font-file-url: none; fill: rgb(0,129,204); fill-rule: nonzero; opacity: 1;" transform=" translate(-297.1, -806.69)" d="m 297.14 954.14 c -3.83 0 -6.44 -4.29 -6.44 -9.43 l 0 -276.04 c 0 -5.25 2.61 -9.43 6.44 -9.43 s 6.36 4.29 6.36 9.43 l 0 276.04 c 0 5.25 -2.61 9.43 -6.36 9.43 z" stroke-linecap="round"/>
</g>
		<g transform="matrix(1 0 0 1 -41.4894 -409.0671)" id="svg_92">
<path style="stroke: none; stroke-width: 1; stroke-dasharray: none; stroke-linecap: butt; stroke-dashoffset: 0; stroke-linejoin: miter; stroke-miterlimit: 4; is-custom-font: none; font-file-url: none; fill: rgb(112,117,123); fill-rule: nonzero; opacity: 1;" transform=" translate(-258.5107, -90.933)" d="m 259.1 82.94 c -2.09 4.5 -3.83 9.32 -5.22 14.25 c -0.61 2.04 1.48 3.64 2.44 1.93 c 1.83 -3.43 4.01 -6.54 6.44 -9.32 c 0.52 -0.64 0.61 -1.5 0.35 -2.36 l -1.57 -4.29 c -0.26 -0.86 -0.96 -1.29 -1.65 -1.07 c -0.35 0.11 -0.7 0.43 -0.78 0.86 l -0.01 0 z" stroke-linecap="round"/>
</g>
		<g transform="matrix(1 0 0 1 -19.3038 -432.2794)" id="svg_93">
<path style="stroke: none; stroke-width: 1; stroke-dasharray: none; stroke-linecap: butt; stroke-dashoffset: 0; stroke-linejoin: miter; stroke-miterlimit: 4; is-custom-font: none; font-file-url: none; fill: rgb(112,117,123); fill-rule: nonzero; opacity: 1;" transform=" translate(-280.6962, -67.7206)" d="m 295.67 51.44 c -12.37 1.07 -23.25 9.64 -31.18 21.75 c -0.35 0.64 -0.44 1.39 -0.17 2.14 l 2.7 7.61 c 0.26 0.86 1.04 1.29 1.65 0.96 c 0.09 0 0.17 -0.11 0.26 -0.11 c 7.75 -6.11 17.24 -9.64 27.69 -10.5 l 0.52 0 l 0.09 -21.75 l -1.57 0 l 0 -0.11 l 0.01 0.01 z" stroke-linecap="round"/>
</g>
		<g transform="matrix(1 0 0 1 18.0327 -432.808)" id="svg_94">
<path style="stroke: none; stroke-width: 1; stroke-dasharray: none; stroke-linecap: butt; stroke-dashoffset: 0; stroke-linejoin: miter; stroke-miterlimit: 4; is-custom-font: none; font-file-url: none; fill: rgb(112,117,123); fill-rule: nonzero; opacity: 1;" transform=" translate(-318.0327, -67.192)" d="m 333.55 73.41 c 0.26 -0.75 0.17 -1.61 -0.26 -2.25 c -7.84 -11.04 -18.2 -18.75 -29.96 -19.61 c -0.17 0 -0.87 0 -0.87 0 l -0.09 21.75 l 0.09 0 c 9.75 0.75 18.72 3.86 26.21 9.32 c 0.61 0.43 1.39 0.21 1.83 -0.64 c 0 -0.11 0.09 -0.21 0.09 -0.21 l 2.96 -8.36 z" stroke-linecap="round"/>
</g>
		<g transform="matrix(1 0 0 1 40.1225 -410.4334)" id="svg_95">
<path style="stroke: none; stroke-width: 1; stroke-dasharray: none; stroke-linecap: butt; stroke-dashoffset: 0; stroke-linejoin: miter; stroke-miterlimit: 4; is-custom-font: none; font-file-url: none; fill: rgb(112,117,123); fill-rule: nonzero; opacity: 1;" transform=" translate(-340.1225, -89.5667)" d="m 336.52 80.69 l -1.74 5.04 c -0.26 0.86 -0.09 1.82 0.44 2.36 c 3.05 3.11 5.66 6.75 7.84 10.82 c 0.96 1.82 2.96 0.21 2.44 -1.82 c -1.57 -5.89 -3.74 -11.47 -6.44 -16.72 c -0.35 -0.86 -1.13 -1.18 -1.74 -0.75 c -0.44 0.21 -0.7 0.64 -0.78 1.07 l -0.02 0 z" stroke-linecap="round"/>
</g>
		<g transform="matrix(1 0 0 1 -59.81 -363.905)" id="svg_96">
<path style="stroke: rgb(178,178,178); stroke-width: 1; stroke-dasharray: none; stroke-linecap: butt; stroke-dashoffset: 0; stroke-linejoin: miter; stroke-miterlimit: 10; is-custom-font: none; font-file-url: none; fill: none; fill-rule: nonzero; opacity: 1;" transform=" translate(-240.19, -136.095)" d="m 229.65 123.34 l 18.55 0 c 1.39 0 2.53 1.39 2.53 3.11 c 0 0 0 0 0 0 l 0 19.29 c 0 1.71 -1.13 3.11 -2.53 3.11 l 0 0 l -18.55 0" stroke-linecap="round"/>
</g>
		<g transform="matrix(1 0 0 1 61.52 -363.905)" id="svg_98">
<path style="stroke: rgb(178,178,178); stroke-width: 1; stroke-dasharray: none; stroke-linecap: butt; stroke-dashoffset: 0; stroke-linejoin: miter; stroke-miterlimit: 10; is-custom-font: none; font-file-url: none; fill: none; fill-rule: nonzero; opacity: 1;" transform=" translate(-361.52, -136.095)" d="m 372.1 123.34 l -18.55 0 c -1.39 0 -2.53 1.39 -2.61 3.11 c 0 0 0 0 0 0 l 0 19.29 c 0 1.71 1.13 3.11 2.61 3.11 l 18.55 0" stroke-linecap="round"/>
</g>
		<g transform="matrix(1 0 0 1 -260.6085 -39.6306)" id="svg_100">
<polyline style="stroke: rgb(178,178,178); stroke-width: 2; stroke-dasharray: none; stroke-linecap: butt; stroke-dashoffset: 0; stroke-linejoin: miter; stroke-miterlimit: 10; is-custom-font: none; font-file-url: none; fill: none; fill-rule: nonzero; opacity: 1;" points="-146.3414,73.5645 -146.3414,47.7392 146.3414,-73.5645 146.3414,-40.2381 "/>
</g>
		<g transform="matrix(1 0 0 1 -309.77 -17.88)" id="svg_101">
<line style="stroke: rgb(178,178,178); stroke-width: 2; stroke-dasharray: none; stroke-linecap: butt; stroke-dashoffset: 0; stroke-linejoin: miter; stroke-miterlimit: 10; is-custom-font: none; font-file-url: none; fill: none; fill-rule: nonzero; opacity: 1;" x1="0" y1="-13.340000000000003" x2="0" y2="13.340000000000003"/>
</g>
		<g transform="matrix(1 0 0 1 -211.97 -57.31)" id="svg_102">
<line style="stroke: rgb(178,178,178); stroke-width: 2; stroke-dasharray: none; stroke-linecap: butt; stroke-dashoffset: 0; stroke-linejoin: miter; stroke-miterlimit: 10; is-custom-font: none; font-file-url: none; fill: none; fill-rule: nonzero; opacity: 1;" x1="0" y1="-15.269999999999982" x2="0" y2="15.269999999999982"/>
</g>
</g>
</g>
<g transform="matrix(1 0 0 1 220.3818 153.9922)" style="" id="301961">
		
<path xml:space="preserve" font-family="Lato" font-size="12" font-style="normal" font-weight="normal" style="stroke: none; stroke-width: 0; stroke-dasharray: none; stroke-linecap: butt; stroke-dashoffset: 0; stroke-linejoin: miter; stroke-miterlimit: 4; is-custom-font: none; font-file-url: none; fill: rgb(0,0,0); fill-rule: nonzero; opacity: 1; white-space: pre;" d="M0.35-4.83L3.79 3.77L2.88 3.77Q2.73 3.77 2.63 3.69Q2.54 3.61 2.49 3.49L2.49 3.49L1.68 1.42L-2.17 1.42L-2.98 3.49Q-3.02 3.60-3.12 3.69Q-3.22 3.77-3.37 3.77L-3.37 3.77L-4.27 3.77L-0.83-4.83L0.35-4.83ZM-0.50-2.91L-1.85 0.58L1.36 0.58L0.01-2.92Q-0.12-3.24-0.25-3.73L-0.25-3.73Q-0.31-3.48-0.38-3.28Q-0.44-3.07-0.50-2.91L-0.50-2.91Z"/></g>
<g transform="matrix(1 0 0 1 246.3818 153.9922)" style="" id="608160">
		
<path xml:space="preserve" font-family="Lato" font-size="12" font-style="normal" font-weight="normal" style="stroke: none; stroke-width: 0; stroke-dasharray: none; stroke-linecap: butt; stroke-dashoffset: 0; stroke-linejoin: miter; stroke-miterlimit: 4; is-custom-font: none; font-file-url: none; fill: rgb(0,0,0); fill-rule: nonzero; opacity: 1; white-space: pre;" d="M0.08 3.77L-2.96 3.77L-2.96-4.83L-0.22-4.83Q0.58-4.83 1.15-4.67Q1.72-4.52 2.09-4.23Q2.46-3.94 2.64-3.52Q2.81-3.11 2.81-2.58L2.81-2.58Q2.81-2.27 2.72-1.97Q2.62-1.68 2.42-1.43Q2.21-1.17 1.91-0.98Q1.61-0.78 1.20-0.65L1.20-0.65Q2.14-0.47 2.62 0.03Q3.10 0.52 3.10 1.32L3.10 1.32Q3.10 1.87 2.90 2.32Q2.70 2.77 2.31 3.09Q1.93 3.42 1.37 3.59Q0.80 3.77 0.08 3.77L0.08 3.77ZM0.06-0.15L-1.79-0.15L-1.79 2.85L0.07 2.85Q0.56 2.85 0.92 2.73Q1.28 2.62 1.51 2.41Q1.74 2.20 1.85 1.92Q1.96 1.63 1.96 1.29L1.96 1.29Q1.96 0.63 1.49 0.24Q1.01-0.15 0.06-0.15L0.06-0.15ZM-1.79-3.91L-1.79-0.98L-0.26-0.98Q0.23-0.98 0.59-1.08Q0.95-1.19 1.19-1.38Q1.43-1.58 1.54-1.85Q1.66-2.12 1.66-2.45L1.66-2.45Q1.66-3.20 1.20-3.56Q0.74-3.91-0.22-3.91L-0.22-3.91L-1.79-3.91Z"/></g>
<g transform="matrix(1 0 0 1 296.7986 153.9922)" style="" id="513684">
		
<path xml:space="preserve" font-family="Lato" font-size="12" font-style="normal" font-weight="normal" style="stroke: none; stroke-width: 0; stroke-dasharray: none; stroke-linecap: butt; stroke-dashoffset: 0; stroke-linejoin: miter; stroke-miterlimit: 4; is-custom-font: none; font-file-url: none; fill: rgb(0,0,0); fill-rule: nonzero; opacity: 1; white-space: pre;" d="M2.99 1.99L2.99 1.99Q3.09 1.99 3.17 2.07L3.17 2.07L3.62 2.57Q3.10 3.18 2.34 3.52Q1.59 3.87 0.53 3.87L0.53 3.87Q-0.40 3.87-1.16 3.54Q-1.91 3.22-2.45 2.64Q-2.98 2.07-3.28 1.26Q-3.57 0.45-3.57-0.53L-3.57-0.53Q-3.57-1.50-3.26-2.31Q-2.94-3.12-2.37-3.70Q-1.80-4.28-1.01-4.60Q-0.21-4.92 0.75-4.92L0.75-4.92Q1.70-4.92 2.38-4.63Q3.07-4.34 3.61-3.83L3.61-3.83L3.23-3.30Q3.19-3.24 3.13-3.20Q3.08-3.16 2.98-3.16L2.98-3.16Q2.90-3.16 2.81-3.22Q2.72-3.27 2.60-3.36Q2.48-3.44 2.32-3.54Q2.16-3.63 1.94-3.72Q1.72-3.80 1.42-3.86Q1.13-3.92 0.74-3.92L0.74-3.92Q0.05-3.92-0.52-3.68Q-1.09-3.44-1.51-3.00Q-1.92-2.57-2.15-1.94Q-2.38-1.31-2.38-0.53L-2.38-0.53Q-2.38 0.28-2.15 0.91Q-1.92 1.54-1.52 1.97Q-1.12 2.41-0.58 2.64Q-0.03 2.86 0.60 2.86L0.60 2.86Q0.98 2.86 1.29 2.82Q1.60 2.77 1.86 2.68Q2.12 2.58 2.34 2.43Q2.57 2.29 2.80 2.08L2.80 2.08Q2.90 1.99 2.99 1.99Z"/></g>
<g transform="matrix(1 0 0 1 324.382 153.9922)" style="" id="369072">
		
<path xml:space="preserve" font-family="Lato" font-size="12" font-style="normal" font-weight="normal" style="stroke: none; stroke-width: 0; stroke-dasharray: none; stroke-linecap: butt; stroke-dashoffset: 0; stroke-linejoin: miter; stroke-miterlimit: 4; is-custom-font: none; font-file-url: none; fill: rgb(0,0,0); fill-rule: nonzero; opacity: 1; white-space: pre;" d="M3.98-0.53L3.98-0.53Q3.98 0.44 3.67 1.23Q3.37 2.02 2.81 2.59Q2.25 3.15 1.47 3.46Q0.69 3.77-0.26 3.77L-0.26 3.77L-3.47 3.77L-3.47-4.83L-0.26-4.83Q0.69-4.83 1.47-4.52Q2.25-4.21 2.81-3.64Q3.37-3.08 3.67-2.28Q3.98-1.49 3.98-0.53ZM2.78-0.53L2.78-0.53Q2.78-1.32 2.57-1.94Q2.35-2.57 1.96-3.00Q1.56-3.43 1.00-3.66Q0.43-3.89-0.26-3.89L-0.26-3.89L-2.30-3.89L-2.30 2.83L-0.26 2.83Q0.43 2.83 1.00 2.60Q1.56 2.37 1.96 1.94Q2.35 1.51 2.57 0.89Q2.78 0.27 2.78-0.53Z"/></g>
<g transform="matrix(1 0 0 1 272.2273 178.8309)" style="" id="981066">
		
<path xml:space="preserve" font-family="Lato" font-size="12" font-style="normal" font-weight="normal" style="stroke: none; stroke-width: 0; stroke-dasharray: none; stroke-linecap: butt; stroke-dashoffset: 0; stroke-linejoin: miter; stroke-miterlimit: 4; is-custom-font: none; font-file-url: none; fill: rgb(0,0,0); fill-rule: nonzero; opacity: 1; white-space: pre;" d="M-1.76 3.77L-1.76 2.95L0.09 2.95L0.09-2.91Q0.09-3.17 0.11-3.44L0.11-3.44L-1.43-2.13Q-1.49-2.08-1.55-2.06Q-1.61-2.04-1.66-2.04L-1.66-2.04Q-1.75-2.04-1.82-2.08Q-1.90-2.12-1.93-2.17L-1.93-2.17L-2.27-2.63L0.29-4.85L1.16-4.85L1.16 2.95L2.85 2.95L2.85 3.77L-1.76 3.77Z"/></g>
<g transform="matrix(1 0 0 1 272.2273 223.1188)" style="" id="916683">
		
<path xml:space="preserve" font-family="Lato" font-size="12" font-style="normal" font-weight="normal" style="stroke: none; stroke-width: 0; stroke-dasharray: none; stroke-linecap: butt; stroke-dashoffset: 0; stroke-linejoin: miter; stroke-miterlimit: 4; is-custom-font: none; font-file-url: none; fill: rgb(0,0,0); fill-rule: nonzero; opacity: 1; white-space: pre;" d="M0.13-4.92L0.13-4.92Q0.67-4.92 1.15-4.76Q1.62-4.60 1.97-4.29Q2.31-3.98 2.51-3.54Q2.71-3.09 2.71-2.53L2.71-2.53Q2.71-2.05 2.56-1.64Q2.42-1.23 2.17-0.86Q1.93-0.48 1.60-0.13Q1.28 0.22 0.92 0.58L0.92 0.58L-1.34 2.90Q-1.10 2.83-0.85 2.79Q-0.61 2.76-0.38 2.76L-0.38 2.76L2.50 2.76Q2.68 2.76 2.78 2.86Q2.88 2.96 2.88 3.12L2.88 3.12L2.88 3.77L-2.86 3.77L-2.86 3.40Q-2.86 3.29-2.81 3.17Q-2.77 3.05-2.66 2.95L-2.66 2.95L0.09 0.18Q0.43-0.17 0.71-0.49Q1.00-0.81 1.20-1.13Q1.40-1.46 1.51-1.79Q1.61-2.12 1.61-2.50L1.61-2.50Q1.61-2.88 1.49-3.16Q1.37-3.45 1.16-3.63Q0.95-3.82 0.67-3.91Q0.39-4.01 0.07-4.01L0.07-4.01Q-0.26-4.01-0.53-3.91Q-0.81-3.81-1.02-3.64Q-1.24-3.47-1.38-3.24Q-1.53-3.00-1.59-2.72L-1.59-2.72Q-1.64-2.55-1.73-2.47Q-1.83-2.39-1.99-2.39L-1.99-2.39Q-2.02-2.39-2.05-2.40Q-2.08-2.40-2.12-2.40L-2.12-2.40L-2.68-2.50Q-2.60-3.09-2.36-3.54Q-2.12-3.99-1.75-4.30Q-1.38-4.61-0.90-4.77Q-0.43-4.92 0.13-4.92Z"/></g>
<g transform="matrix(1 0 0 1 272.2273 267.8157)" style="" id="724977">
		
<path xml:space="preserve" font-family="Lato" font-size="12" font-style="normal" font-weight="normal" style="stroke: none; stroke-width: 0; stroke-dasharray: none; stroke-linecap: butt; stroke-dashoffset: 0; stroke-linejoin: miter; stroke-miterlimit: 4; is-custom-font: none; font-file-url: none; fill: rgb(0,0,0); fill-rule: nonzero; opacity: 1; white-space: pre;" d="M0.24-4.92L0.24-4.92Q0.79-4.92 1.25-4.77Q1.71-4.61 2.04-4.32Q2.38-4.04 2.56-3.63Q2.75-3.22 2.75-2.72L2.75-2.72Q2.75-2.31 2.64-1.99Q2.54-1.67 2.34-1.43Q2.15-1.19 1.87-1.02Q1.60-0.85 1.25-0.75L1.25-0.75Q2.09-0.53 2.52-0.00Q2.94 0.52 2.94 1.30L2.94 1.30Q2.94 1.90 2.72 2.37Q2.49 2.85 2.10 3.18Q1.71 3.51 1.19 3.69Q0.67 3.87 0.08 3.87L0.08 3.87Q-0.61 3.87-1.09 3.69Q-1.58 3.52-1.91 3.22Q-2.25 2.92-2.47 2.51Q-2.68 2.10-2.83 1.62L-2.83 1.62L-2.38 1.43Q-2.25 1.38-2.12 1.38L-2.12 1.38Q-2.00 1.38-1.91 1.43Q-1.82 1.48-1.77 1.59L-1.77 1.59Q-1.76 1.61-1.75 1.64Q-1.73 1.66-1.72 1.69L-1.72 1.69Q-1.64 1.87-1.52 2.09Q-1.40 2.31-1.19 2.50Q-0.99 2.69-0.69 2.82Q-0.38 2.95 0.07 2.95L0.07 2.95Q0.52 2.95 0.85 2.81Q1.19 2.66 1.42 2.43Q1.64 2.19 1.76 1.90Q1.87 1.62 1.87 1.33L1.87 1.33Q1.87 0.99 1.78 0.70Q1.69 0.41 1.44 0.20Q1.20-0.01 0.77-0.13Q0.34-0.25-0.33-0.25L-0.33-0.25L-0.33-1.02Q0.22-1.03 0.60-1.14Q0.99-1.26 1.24-1.46Q1.48-1.65 1.59-1.93Q1.70-2.21 1.70-2.54L1.70-2.54Q1.70-2.91 1.59-3.19Q1.47-3.47 1.27-3.65Q1.06-3.83 0.78-3.92Q0.50-4.01 0.18-4.01L0.18-4.01Q-0.14-4.01-0.42-3.91Q-0.70-3.81-0.91-3.64Q-1.12-3.47-1.27-3.24Q-1.41-3.00-1.48-2.72L-1.48-2.72Q-1.53-2.55-1.63-2.47Q-1.72-2.39-1.87-2.39L-1.87-2.39Q-1.90-2.39-1.94-2.40Q-1.97-2.40-2.01-2.40L-2.01-2.40L-2.57-2.50Q-2.48-3.09-2.24-3.54Q-2.00-3.99-1.64-4.30Q-1.27-4.61-0.79-4.77Q-0.31-4.92 0.24-4.92Z"/></g>
<g transform="matrix(1 0 0 1 272.2273 312.8611)" style="" id="706818">
		
<path xml:space="preserve" font-family="Lato" font-size="12" font-style="normal" font-weight="normal" style="stroke: none; stroke-width: 0; stroke-dasharray: none; stroke-linecap: butt; stroke-dashoffset: 0; stroke-linejoin: miter; stroke-miterlimit: 4; is-custom-font: none; font-file-url: none; fill: rgb(0,0,0); fill-rule: nonzero; opacity: 1; white-space: pre;" d="M1.94-4.83L1.94 0.67L3.24 0.67L3.24 1.28Q3.24 1.38 3.18 1.44Q3.13 1.51 3.01 1.51L3.01 1.51L1.94 1.51L1.94 3.77L1.00 3.77L1.00 1.51L-2.81 1.51Q-2.93 1.51-3.02 1.44Q-3.11 1.37-3.13 1.27L-3.13 1.27L-3.24 0.72L0.94-4.83L1.94-4.83ZM1.00 0.67L1.00-2.88Q1.00-3.03 1.01-3.21Q1.01-3.39 1.04-3.59L1.04-3.59L-2.08 0.67L1.00 0.67Z"/></g>
<g transform="matrix(1 0 0 1 272.2273 357.6036)" style="" id="175033">
		
<path xml:space="preserve" font-family="Lato" font-size="12" font-style="normal" font-weight="normal" style="stroke: none; stroke-width: 0; stroke-dasharray: none; stroke-linecap: butt; stroke-dashoffset: 0; stroke-linejoin: miter; stroke-miterlimit: 4; is-custom-font: none; font-file-url: none; fill: rgb(0,0,0); fill-rule: nonzero; opacity: 1; white-space: pre;" d="M2.39-4.83L2.39-4.36Q2.39-4.13 2.24-3.99Q2.10-3.84 1.76-3.84L1.76-3.84L-0.94-3.84L-1.34-1.58Q-0.67-1.73-0.10-1.73L-0.10-1.73Q0.58-1.73 1.09-1.53Q1.60-1.33 1.95-0.98Q2.30-0.63 2.48-0.16Q2.65 0.31 2.65 0.87L2.65 0.87Q2.65 1.56 2.41 2.11Q2.17 2.66 1.76 3.05Q1.34 3.45 0.77 3.66Q0.21 3.87-0.44 3.87L-0.44 3.87Q-0.82 3.87-1.17 3.79Q-1.52 3.72-1.82 3.59Q-2.12 3.46-2.38 3.30Q-2.63 3.14-2.83 2.96L-2.83 2.96L-2.51 2.50Q-2.40 2.35-2.22 2.35L-2.22 2.35Q-2.11 2.35-1.95 2.44Q-1.80 2.53-1.58 2.65Q-1.37 2.76-1.08 2.85Q-0.79 2.95-0.38 2.95L-0.38 2.95Q0.07 2.95 0.43 2.80Q0.79 2.66 1.04 2.39Q1.30 2.13 1.43 1.75Q1.57 1.38 1.57 0.92L1.57 0.92Q1.57 0.52 1.46 0.19Q1.34-0.13 1.10-0.36Q0.86-0.59 0.51-0.71Q0.16-0.84-0.32-0.84L-0.32-0.84Q-0.64-0.84-0.99-0.78Q-1.34-0.73-1.71-0.61L-1.71-0.61L-2.38-0.81L-1.69-4.83L2.39-4.83Z"/></g>
<g transform="matrix(1 0 0 1 272.2273 402.6137)" style="" id="217214">
		
<path xml:space="preserve" font-family="Lato" font-size="12" font-style="normal" font-weight="normal" style="stroke: none; stroke-width: 0; stroke-dasharray: none; stroke-linecap: butt; stroke-dashoffset: 0; stroke-linejoin: miter; stroke-miterlimit: 4; is-custom-font: none; font-file-url: none; fill: rgb(0,0,0); fill-rule: nonzero; opacity: 1; white-space: pre;" d="M0.42-1.50L0.42-1.50Q0.94-1.50 1.40-1.33Q1.86-1.16 2.21-0.83Q2.56-0.50 2.76-0.03Q2.96 0.45 2.96 1.06L2.96 1.06Q2.96 1.66 2.75 2.17Q2.53 2.68 2.15 3.06Q1.76 3.43 1.21 3.65Q0.67 3.87 0.01 3.87L0.01 3.87Q-0.64 3.87-1.16 3.66Q-1.69 3.45-2.06 3.07Q-2.43 2.69-2.63 2.15Q-2.83 1.60-2.83 0.93L-2.83 0.93Q-2.83 0.37-2.58-0.27Q-2.33-0.90-1.78-1.64L-1.78-1.64L0.40-4.57Q0.48-4.68 0.63-4.75Q0.78-4.83 0.97-4.83L0.97-4.83L1.92-4.83L-1.06-1.05Q-0.76-1.26-0.38-1.38Q-0.01-1.50 0.42-1.50ZM-1.80 1.12L-1.80 1.12Q-1.80 1.53-1.68 1.87Q-1.56 2.22-1.33 2.46Q-1.10 2.71-0.77 2.84Q-0.43 2.98-0.01 2.98L-0.01 2.98Q0.43 2.98 0.77 2.84Q1.12 2.70 1.37 2.46Q1.62 2.21 1.76 1.87Q1.89 1.54 1.89 1.14L1.89 1.14Q1.89 0.72 1.76 0.38Q1.63 0.04 1.39-0.19Q1.15-0.43 0.81-0.56Q0.47-0.68 0.07-0.68L0.07-0.68Q-0.36-0.68-0.71-0.54Q-1.06-0.39-1.30-0.14Q-1.54 0.11-1.67 0.44Q-1.80 0.76-1.80 1.12Z"/></g>
<g transform="matrix(1 0 0 1 272.2273 447.774)" style="" id="332395">
		
<path xml:space="preserve" font-family="Lato" font-size="12" font-style="normal" font-weight="normal" style="stroke: none; stroke-width: 0; stroke-dasharray: none; stroke-linecap: butt; stroke-dashoffset: 0; stroke-linejoin: miter; stroke-miterlimit: 4; is-custom-font: none; font-file-url: none; fill: rgb(0,0,0); fill-rule: nonzero; opacity: 1; white-space: pre;" d="M-2.82-4.83L3.02-4.83L3.02-4.35Q3.02-4.14 2.98-4.01Q2.93-3.88 2.89-3.79L2.89-3.79L-0.67 3.39Q-0.75 3.55-0.89 3.66Q-1.03 3.77-1.26 3.77L-1.26 3.77L-2.02 3.77L1.59-3.32Q1.67-3.47 1.75-3.60Q1.83-3.72 1.93-3.84L1.93-3.84L-2.56-3.84Q-2.66-3.84-2.74-3.92Q-2.82-4.00-2.82-4.10L-2.82-4.10L-2.82-4.83Z"/></g>
<g transform="matrix(1 0 0 1 272.2273 493.2399)" style="" id="658473">
		
<path xml:space="preserve" font-family="Lato" font-size="12" font-style="normal" font-weight="normal" style="stroke: none; stroke-width: 0; stroke-dasharray: none; stroke-linecap: butt; stroke-dashoffset: 0; stroke-linejoin: miter; stroke-miterlimit: 4; is-custom-font: none; font-file-url: none; fill: rgb(0,0,0); fill-rule: nonzero; opacity: 1; white-space: pre;" d="M-0.01 3.87L-0.01 3.87Q-0.65 3.87-1.18 3.69Q-1.72 3.52-2.10 3.21Q-2.48 2.89-2.69 2.43Q-2.90 1.98-2.90 1.42L-2.90 1.42Q-2.90 0.59-2.47 0.05Q-2.04-0.48-1.24-0.71L-1.24-0.71Q-1.91-0.96-2.26-1.47Q-2.60-1.97-2.60-2.66L-2.60-2.66Q-2.60-3.14-2.42-3.55Q-2.23-3.96-1.89-4.27Q-1.55-4.58-1.07-4.75Q-0.59-4.92-0.01-4.92L-0.01-4.92Q0.58-4.92 1.06-4.75Q1.54-4.58 1.88-4.27Q2.22-3.96 2.41-3.55Q2.59-3.14 2.59-2.66L2.59-2.66Q2.59-1.97 2.24-1.47Q1.90-0.96 1.22-0.71L1.22-0.71Q2.03-0.48 2.46 0.05Q2.89 0.59 2.89 1.42L2.89 1.42Q2.89 1.98 2.68 2.43Q2.47 2.89 2.09 3.21Q1.70 3.52 1.17 3.69Q0.64 3.87-0.01 3.87ZM-0.01 3.01L-0.01 3.01Q0.41 3.01 0.75 2.90Q1.08 2.78 1.31 2.57Q1.54 2.35 1.67 2.06Q1.79 1.76 1.79 1.40L1.79 1.40Q1.79 0.96 1.64 0.64Q1.49 0.33 1.25 0.13Q1.00-0.07 0.67-0.16Q0.35-0.26-0.01-0.26L-0.01-0.26Q-0.36-0.26-0.68-0.16Q-1.01-0.07-1.26 0.13Q-1.51 0.33-1.65 0.64Q-1.80 0.96-1.80 1.40L-1.80 1.40Q-1.80 1.76-1.68 2.06Q-1.55 2.35-1.32 2.57Q-1.09 2.78-0.76 2.90Q-0.43 3.01-0.01 3.01ZM-0.01-1.11L-0.01-1.11Q0.41-1.11 0.71-1.24Q1.01-1.37 1.19-1.59Q1.38-1.80 1.46-2.07Q1.55-2.35 1.55-2.64L1.55-2.64Q1.55-2.94 1.45-3.21Q1.35-3.47 1.15-3.67Q0.96-3.87 0.67-3.98Q0.38-4.10-0.01-4.10L-0.01-4.10Q-0.39-4.10-0.68-3.98Q-0.97-3.87-1.17-3.67Q-1.36-3.47-1.46-3.21Q-1.56-2.94-1.56-2.64L-1.56-2.64Q-1.56-2.35-1.48-2.07Q-1.39-1.80-1.21-1.59Q-1.02-1.37-0.72-1.24Q-0.43-1.11-0.01-1.11Z"/></g>
<g transform="matrix(1 0 0 1 272.2273 540.4558)" style="" id="714549">
		
<path xml:space="preserve" font-family="Lato" font-size="12" font-style="normal" font-weight="normal" style="stroke: none; stroke-width: 0; stroke-dasharray: none; stroke-linecap: butt; stroke-dashoffset: 0; stroke-linejoin: miter; stroke-miterlimit: 4; is-custom-font: none; font-file-url: none; fill: rgb(0,0,0); fill-rule: nonzero; opacity: 1; white-space: pre;" d="M-0.19 0.24L-0.19 0.24Q-0.67 0.24-1.11 0.08Q-1.54-0.08-1.87-0.40Q-2.20-0.71-2.40-1.17Q-2.59-1.63-2.59-2.22L-2.59-2.22Q-2.59-2.79-2.38-3.28Q-2.17-3.77-1.79-4.14Q-1.42-4.50-0.89-4.71Q-0.37-4.92 0.25-4.92L0.25-4.92Q0.87-4.92 1.37-4.72Q1.88-4.52 2.24-4.15Q2.60-3.78 2.79-3.27Q2.99-2.76 2.99-2.15L2.99-2.15Q2.99-1.77 2.92-1.44Q2.85-1.11 2.72-0.79Q2.59-0.47 2.40-0.16Q2.22 0.16 1.99 0.49L1.99 0.49L-0.11 3.52Q-0.19 3.63-0.33 3.70Q-0.47 3.77-0.66 3.77L-0.66 3.77L-1.64 3.77L0.97 0.34Q1.10 0.17 1.22 0.01Q1.33-0.14 1.43-0.30L1.43-0.30Q1.10-0.03 0.69 0.10Q0.28 0.24-0.19 0.24ZM1.96-2.27L1.96-2.27Q1.96-2.67 1.83-3.00Q1.70-3.33 1.48-3.56Q1.25-3.78 0.93-3.91Q0.62-4.03 0.24-4.03L0.24-4.03Q-0.16-4.03-0.48-3.90Q-0.81-3.77-1.04-3.54Q-1.27-3.32-1.40-3.00Q-1.52-2.68-1.52-2.30L-1.52-2.30Q-1.52-1.89-1.41-1.57Q-1.29-1.25-1.07-1.03Q-0.85-0.81-0.54-0.69Q-0.22-0.58 0.17-0.58L0.17-0.58Q0.60-0.58 0.93-0.72Q1.27-0.86 1.49-1.10Q1.72-1.33 1.84-1.64Q1.96-1.94 1.96-2.27Z"/></g>
<g transform="matrix(1 0 0 1 272.2273 584.4558)" style="" id="990729">
		
<path xml:space="preserve" font-family="Lato" font-size="12" font-style="normal" font-weight="normal" style="stroke: none; stroke-width: 0; stroke-dasharray: none; stroke-linecap: butt; stroke-dashoffset: 0; stroke-linejoin: miter; stroke-miterlimit: 4; is-custom-font: none; font-file-url: none; fill: rgb(0,0,0); fill-rule: nonzero; opacity: 1; white-space: pre;" d="M-5.24 3.77L-5.24 2.95L-3.39 2.95L-3.39-2.91Q-3.39-3.17-3.37-3.44L-3.37-3.44L-4.91-2.13Q-4.97-2.08-5.03-2.06Q-5.09-2.04-5.14-2.04L-5.14-2.04Q-5.23-2.04-5.30-2.08Q-5.38-2.12-5.41-2.17L-5.41-2.17L-5.75-2.63L-3.19-4.85L-2.32-4.85L-2.32 2.95L-0.63 2.95L-0.63 3.77L-5.24 3.77ZM6.60-0.53L6.60-0.53Q6.60 0.60 6.36 1.43Q6.11 2.25 5.69 2.79Q5.27 3.33 4.70 3.60Q4.13 3.86 3.47 3.86L3.47 3.86Q2.81 3.86 2.25 3.60Q1.68 3.33 1.26 2.79Q0.84 2.25 0.60 1.43Q0.36 0.60 0.36-0.53L0.36-0.53Q0.36-1.65 0.60-2.48Q0.84-3.31 1.26-3.85Q1.68-4.40 2.25-4.66Q2.81-4.92 3.47-4.92L3.47-4.92Q4.13-4.92 4.70-4.66Q5.27-4.40 5.69-3.85Q6.11-3.31 6.36-2.48Q6.60-1.65 6.60-0.53ZM5.49-0.53L5.49-0.53Q5.49-1.51 5.33-2.18Q5.16-2.85 4.88-3.26Q4.60-3.66 4.24-3.84Q3.87-4.02 3.47-4.02L3.47-4.02Q3.08-4.02 2.71-3.84Q2.35-3.66 2.07-3.26Q1.79-2.85 1.63-2.18Q1.46-1.51 1.46-0.53L1.46-0.53Q1.46 0.46 1.63 1.12Q1.79 1.79 2.07 2.20Q2.35 2.61 2.71 2.78Q3.08 2.96 3.47 2.96L3.47 2.96Q3.87 2.96 4.24 2.78Q4.60 2.61 4.88 2.20Q5.16 1.79 5.33 1.12Q5.49 0.46 5.49-0.53Z"/></g>
</svg>